# xmcd
#
# Track frame offsets:
#	150
#	11950
#	26163
#	39038
#	55855
#	69088
#	82210
#	96638
#	113478
#	127543
#	141023
#	158400
#	169583
#	179765
#	193223
#	206453
#	224968
#	242875
#	260585
#	272753
#	284493
#	300840
#
# Disc length: 4219 seconds
# Revision: 8
# Processed by: cddbd v1.5.2PL0 Copyright (c) Steve Scherf et al.
# Submitted via: dBpowerAMP V12.0
#
DISCID=3f107916
DTITLE=Various Artist - Contemporary Country: The Late 70's Pure Gold
DYEAR=1992
DGENRE=Country
TTITLE0=Moe Brandy And Joe Stampley - Just Good Ol' Boys
TTITLE1=Hank Williams Jr. - Whiskey Bent And Hell Bound
TTITLE2=Merle Haggard - I'm Always On A Mountain When I Fall
TTITLE3=Conway Twitty - Don't Take It Away
TTITLE4=Crystal Gayle - Talking In Your Sleep
TTITLE5=Johnny Duncan - She Can Put Her Shoes Under My Bed (Anytime)
TTITLE6=Dolly Parton - It's All Wrong, But It's All Right
TTITLE7=T. G. Sheppard - Last Cheater's Waltz
TTITLE8=Loretta Lynn - She's Got You
TTITLE9=Waylon Jennings - Amanda
TTITLE10=Jerry Lee Lewis - Middle Age Crazy
TTITLE11=Don Williams - It Must Be Love
TTITLE12=The Statler Brothers - Do You Know You Are My Sunshine
TTITLE13=Crystal Gayle - Why Have You Left The One You Left Me For
TTITLE14=The Oak Ridge Boys - Y'All Come Back Saloon
TTITLE15=Gene Watson - Farewell Party
TTITLE16=Willie Nelson - Georgia On My Mind
TTITLE17=Linda Ronstadt - Blue Bayou
TTITLE18=Charlie Rich - Rollin' With The Flow
TTITLE19=John Conlee - Backside Of Thirty
TTITLE20=Anne Murray - You Needed Me
TTITLE21=Ronnie Milsap - Only One Love In My Life
EXTD=
EXTT0=
EXTT1=
EXTT2=
EXTT3=
EXTT4=
EXTT5=
EXTT6=
EXTT7=
EXTT8=
EXTT9=
EXTT10=
EXTT11=
EXTT12=
EXTT13=
EXTT14=
EXTT15=
EXTT16=
EXTT17=
EXTT18=
EXTT19=
EXTT20=
EXTT21=
PLAYORDER=
